<?xml version="1.0" encoding="iso-8859-1"?>
<!-- Generator: Adobe Illustrator 19.0.0, SVG Export Plug-In . SVG Version: 6.00 Build 0)  -->
<svg fill='#fff' version="1.1" id="Layer_1" xmlns="http://www.w3.org/2000/svg" xmlns:xlink="http://www.w3.org/1999/xlink" x="0px" y="0px"
	 viewBox="0 0 491.52 491.52" style="enable-background:new 0 0 491.52 491.52;" xml:space="preserve">
<g>
	<g>
		<path d="M486.157,174.08l-86.16-86.16v45.2h-122.88V91.898c12.359-9.356,20.48-24.039,20.48-40.698c0-28.23-22.97-51.2-51.2-51.2
			c-28.23,0-51.2,22.97-51.2,51.2c0,16.659,8.121,31.342,20.48,40.698v41.222h-46.96l-20.48-20.48H5.362l25.03,56.32l-25.03,56.32
			h142.875l20.48-20.48h46.96v266.24h-30.72v20.48h30.72h61.44h30.72v-20.48h-30.72V204.8h122.88v55.44L486.157,174.08z
			 M246.398,20.48c16.94,0,30.72,13.78,30.72,30.72s-13.78,30.72-30.72,30.72s-30.72-13.78-30.72-30.72S229.458,20.48,246.398,20.48
			z M256.638,101.365v31.755h-20.48v-31.755c3.31,0.675,6.734,1.035,10.24,1.035C249.904,102.4,253.328,102.04,256.638,101.365z
			 M256.638,471.04h-20.48V204.8h20.48V471.04z M160.238,184.32l-20.48,20.48H36.873l15.93-35.84l-15.93-35.84h102.885l20.48,20.48
			h55.44h61.44h143.36v-16.24l36.72,36.72l-36.72,36.72v-26.48H160.238z"/>
	</g>
</g>
<g>
	<g>
		<rect x="72.294" y="153.6" width="20.48" height="30.72"/>
	</g>
</g>
<g>
	<g>
		<rect x="113.254" y="153.6" width="20.48" height="30.72"/>
	</g>
</g>
<g>
</g>
<g>
</g>
<g>
</g>
<g>
</g>
<g>
</g>
<g>
</g>
<g>
</g>
<g>
</g>
<g>
</g>
<g>
</g>
<g>
</g>
<g>
</g>
<g>
</g>
<g>
</g>
<g>
</g>
</svg>
